<svg width="668" height="607" viewBox="0 0 668 607" fill="none" xmlns="http://www.w3.org/2000/svg">
<path d="M346.581 514.433C452.155 514.433 537.74 510.447 537.74 505.53C537.74 500.613 452.155 496.627 346.581 496.627C241.006 496.627 155.421 500.613 155.421 505.53C155.421 510.447 241.006 514.433 346.581 514.433Z" fill="#E3F0FF"/>
<path d="M430.303 503.709C430.303 503.709 426.629 498.043 434.534 495.312C442.439 492.58 460.363 490.861 458.582 485.296C456.801 479.732 450.677 469.717 466.041 460.207C481.294 450.799 478.288 446.752 480.403 447.662C482.519 448.573 487.64 454.137 486.749 459.398C485.859 464.658 481.628 465.974 483.632 467.693C485.636 469.312 492.427 463.343 492.427 457.779C492.427 452.215 492.761 448.168 497.215 450.495C501.557 452.822 501 456.16 504.117 453.631C507.235 451.102 509.239 446.044 507.903 438.557C506.678 431.071 510.686 425.507 516.475 425.305C522.265 425.102 534.289 434.915 535.291 449.787C536.181 464.658 526.05 476.798 527.497 480.542C528.945 484.386 535.291 482.565 538.631 477.102C541.859 471.639 549.875 480.238 547.76 487.724C545.533 495.211 543.529 503.405 538.631 504.923C533.732 506.44 446.781 505.226 440.212 505.226C433.532 505.226 431.528 505.327 430.303 503.709Z" fill="#FF8D76"/>
<path d="M450.9 501.18C455.465 501.078 469.159 501.18 467.489 494.199C465.819 487.219 462.924 484.285 467.711 478.316C472.499 472.347 477.731 475.989 477.954 479.024C478.177 481.958 476.841 487.927 482.519 487.117C488.197 486.308 488.308 472.347 493.095 471.234C497.883 470.121 499.33 474.37 499.998 478.518C500.777 482.666 506.344 478.215 508.571 473.258C510.797 468.3 510.575 461.522 515.696 459.499C520.817 457.476 523.378 469.11 521.151 479.732C518.925 490.355 517.143 495.615 519.927 496.627C522.71 497.639 528.165 495.11 530.726 498.954C533.287 502.798 529.501 505.429 519.036 505.429C508.682 505.429 455.576 505.429 447.226 505.429C438.653 505.327 440.435 501.382 450.9 501.18Z" fill="#FEC272"/>
<path d="M147.851 340.325C144.511 345.686 135.493 342.955 131.262 336.885C127.031 330.714 120.685 334.356 122.133 346.496C123.58 358.535 128.924 366.527 138.499 372.293C148.073 378.06 158.873 380.386 156.312 384.332C153.751 388.277 149.743 397.281 164.105 401.834C178.467 406.487 199.287 404.363 209.975 393.437C220.774 382.511 220.774 358.433 215.764 345.484C210.865 332.535 200.957 324.34 197.728 318.371C194.499 312.403 188.487 316.55 189.489 322.115C190.603 327.679 192.607 330.916 188.265 331.017C183.923 331.118 181.028 317.562 168.002 315.033C154.976 312.403 152.861 319.484 144.622 315.438C136.383 311.29 133.377 311.694 132.821 318.169C132.264 324.745 137.719 331.928 142.395 333.041C149.409 334.659 150.077 336.683 147.851 340.325Z" fill="#FEC272"/>
<path d="M167 346.597C168.225 352.364 162.992 358.636 153.863 354.994C144.733 351.352 141.505 354.286 146.181 361.974C150.857 369.663 161.322 376.745 167 379.375C172.678 382.005 168.781 385.85 169.561 389.795C170.34 393.741 183.032 399.71 195.835 386.963C208.639 374.216 208.75 358.029 205.076 346.192C201.402 334.457 196.503 336.278 196.503 340.223C196.503 344.169 197.06 351.959 193.72 351.15C190.491 350.34 185.927 344.574 181.696 337.897C174.459 326.465 156.757 317.157 154.419 325.959C152.749 332.13 165.219 337.796 167 346.597Z" fill="#FF8D76"/>
<path d="M425.182 308.862C409.15 297.025 394.565 275.78 391.337 237.64C388.999 210.022 399.13 197.781 409.595 193.228C419.949 188.777 419.949 184.326 424.625 185.54C429.301 186.754 428.188 196.466 423.846 201.22C419.504 205.975 418.947 213.36 425.516 213.866C432.085 214.372 432.864 203.648 433.977 193.734C435.091 183.82 437.763 179.874 450.677 174.411C463.592 168.948 470.383 165.003 473.055 157.011C475.839 149.018 478.511 149.524 483.409 151.75C488.308 153.976 489.978 164.396 485.859 168.341C481.739 172.287 478.511 175.322 479.067 178.761C479.624 182.201 481.517 176.738 492.761 171.781C504.006 166.824 508.571 151.952 510.018 144.264C511.465 136.575 514.36 134.552 522.265 138.092C530.169 141.532 540.301 155.19 537.517 173.804C534.734 192.419 520.817 205.065 518.702 215.08C516.475 224.995 523.378 227.22 530.503 223.477C537.629 219.734 533.732 208.606 537.629 203.345C541.414 198.084 553.215 209.314 556.778 228.131C560.341 246.948 565.796 276.893 534.957 304.916C503.115 333.648 456.467 332.029 425.182 308.862Z" fill="#FEC272"/>
<path d="M437.095 220.543C444.888 209.01 452.904 209.415 453.238 213.563C453.461 217.812 447.003 223.781 450.232 226.714C453.461 229.648 457.914 224.489 459.25 217.002C460.586 209.516 468.491 205.368 476.729 201.827C484.968 198.388 488.531 190.901 492.539 190.699C496.547 190.497 497.994 198.388 495.322 203.143C492.539 207.897 482.741 210.325 482.741 217.002C482.741 223.679 489.978 224.084 493.095 218.52C496.213 212.956 495.433 209.921 502.002 209.415C508.571 208.909 508.014 223.174 503.672 228.434C499.33 233.695 491.871 237.843 495.322 243.002C498.773 248.162 505.119 243.002 508.571 239.563C512.022 236.123 518.925 239.866 520.038 246.543C521.151 253.119 506.901 264.45 507.791 270.216C508.682 275.983 514.36 274.566 517.589 270.52C520.817 266.574 525.048 271.632 523.935 278.309C522.821 284.986 503.004 307.142 467.6 298.644C416.164 286.403 423.178 241.282 437.095 220.543Z" fill="#FF8D76"/>
<path d="M252.059 206.785L367.4 115.431C368.513 114.521 370.183 114.622 371.185 115.634C372.187 116.645 372.076 118.264 370.963 119.174L257.514 213.462L252.059 206.785Z" fill="#E1ECFF"/>
<path d="M241.259 225.399L178.022 98.7388C177.354 97.5248 178.022 96.0073 179.358 95.5014C180.694 94.8944 182.364 95.4003 183.032 96.7154L249.832 222.668L241.259 225.399Z" fill="#E1ECFF"/>
<path d="M241.927 235.415C253.425 235.415 262.747 226.945 262.747 216.497C262.747 206.049 253.425 197.579 241.927 197.579C230.429 197.579 221.108 206.049 221.108 216.497C221.108 226.945 230.429 235.415 241.927 235.415Z" fill="#0D2560"/>
<path d="M241.037 210.326C246.57 210.326 251.057 207.789 251.057 204.66C251.057 201.531 246.57 198.995 241.037 198.995C235.503 198.995 231.017 201.531 231.017 204.66C231.017 207.789 235.503 210.326 241.037 210.326Z" fill="#273D7A"/>
<path d="M405.81 449.585C405.476 458.184 394.454 458.487 388.999 448.573C386.438 443.818 382.207 435.725 378.533 428.643C374.525 420.853 371.185 414.176 371.185 414.176L402.915 417.11C402.915 417.11 403.583 422.168 404.363 428.542C405.253 435.826 406.033 444.931 405.81 449.585Z" fill="#1C3177"/>
<path d="M404.362 428.542C402.804 428.845 401.022 429.149 399.13 429.452C392.561 430.464 384.99 429.756 378.644 428.643C374.636 420.853 371.296 414.176 371.296 414.176L403.026 417.11C402.915 417.11 403.694 422.168 404.362 428.542Z" fill="#072359"/>
<path d="M190.603 416.604C187.263 424.698 197.171 428.845 206.412 421.663C210.865 418.223 218.213 412.254 224.671 406.993C231.685 401.227 237.697 396.27 237.697 396.27L207.191 387.671C207.191 387.671 204.408 392.122 200.957 397.686C197.171 404.262 192.384 412.254 190.603 416.604Z" fill="#1C3177"/>
<path d="M201.068 397.787C202.404 398.698 203.851 399.608 205.521 400.519C211.088 403.756 218.325 405.779 224.782 407.095C231.796 401.328 237.808 396.371 237.808 396.371L207.303 387.772C207.303 387.772 204.519 392.223 201.068 397.787Z" fill="#072359"/>
<path d="M486.749 307.547C482.519 337.796 478.733 369.866 471.497 392.021C470.606 394.854 469.604 397.484 468.491 399.912C459.25 421.764 442.439 417.313 420.729 419.134C399.019 420.955 392.45 420.752 392.45 420.752L398.017 389.998L424.514 244.722L476.507 248.87C476.507 248.87 479.29 250.691 481.628 254.131C484.077 257.672 491.537 273.353 486.749 307.547Z" fill="#0D2560"/>
<path d="M471.497 392.021C470.606 394.854 469.604 397.484 468.491 399.912C459.25 421.764 442.439 417.313 420.729 419.134C399.019 420.955 392.45 420.752 392.45 420.752L398.017 389.998L471.497 392.021Z" fill="#072359"/>
<path d="M199.843 223.174C199.843 223.174 213.426 216.699 228.79 216.193C244.154 215.687 365.73 226.714 405.476 230.66C445.222 234.605 462.367 239.563 470.383 243.407C478.399 247.251 481.628 254.131 481.628 254.131L417.834 248.87L199.843 223.174Z" fill="#142966"/>
<path d="M175.573 357.22L183.7 243.306C184.591 230.154 197.505 220.341 211.867 221.859L418.502 243.104C431.417 244.419 440.657 254.94 439.433 266.574L425.85 390.908C423.735 410.029 404.251 423.484 383.432 420.348L206.746 393.134C187.819 390.2 174.348 374.62 175.573 357.22Z" fill="#273D7A"/>
<path d="M369.07 394.752L383.989 263.337C384.657 257.773 390.112 253.726 396.235 254.333L422.176 256.963C428.299 257.57 432.641 262.629 431.973 268.092L415.273 399.608C414.605 405.172 408.927 409.118 402.804 408.41L378.756 405.678C372.744 405.071 368.402 400.215 369.07 394.752Z" fill="#FEC272"/>
<path d="M425.404 282.963C425.404 287.212 423.734 291.057 421.062 294.092C419.17 296.115 416.943 297.835 414.271 298.948C411.822 300.061 409.038 300.566 406.032 300.566C395.344 300.566 386.66 292.675 386.66 282.963C386.66 278.917 388.219 275.174 390.668 272.24C392.45 270.115 394.676 268.395 397.348 267.181C399.909 265.967 402.915 265.36 406.032 265.36C416.609 265.36 425.404 273.251 425.404 282.963Z" fill="#F9A95A"/>
<path d="M424.403 280.029C424.403 283.874 422.955 287.415 420.395 290.247C418.725 292.169 416.609 293.687 414.16 294.699C411.822 295.71 409.373 296.216 406.589 296.216C396.792 296.216 388.776 289.033 388.776 280.029C388.776 276.286 390.112 272.948 392.45 270.216C394.12 268.294 396.124 266.675 398.573 265.664C401.023 264.551 403.695 263.944 406.478 263.944C416.498 263.843 424.403 271.127 424.403 280.029Z" fill="#99ADF9"/>
<path d="M420.506 290.247C418.836 292.169 416.721 293.687 414.271 294.699L392.673 270.216C394.343 268.294 396.347 266.675 398.796 265.664L420.506 290.247Z" fill="#C5DFFF"/>
<path d="M407.925 341.437C403.694 342.955 399.352 343.056 395.344 341.943C392.672 341.235 390.112 339.92 387.996 338.099C385.992 336.48 384.434 334.356 383.32 332.029C379.424 323.227 383.988 313.212 393.674 309.671C397.682 308.154 401.913 308.052 405.81 309.064C408.482 309.772 411.042 310.986 413.269 312.706C415.384 314.426 417.166 316.55 418.279 319.08C422.287 327.881 417.611 337.896 407.925 341.437Z" fill="#F9A95A"/>
<path d="M407.925 337.29C404.028 338.706 399.798 338.807 396.012 337.796C393.452 337.087 391.114 335.873 389.11 334.255C387.217 332.737 385.77 330.815 384.768 328.488C381.094 320.192 385.436 310.784 394.454 307.445C398.239 306.029 402.247 305.928 405.921 306.838C408.482 307.445 410.82 308.659 412.935 310.278C414.939 311.897 416.609 313.92 417.722 316.348C421.396 324.543 417.054 333.951 407.925 337.29Z" fill="#99ADF9"/>
<path d="M412.935 310.177L396.013 337.795C393.452 337.087 391.114 335.873 389.11 334.255L405.921 306.838C408.593 307.445 410.931 308.558 412.935 310.177Z" fill="#C5DFFF"/>
<path d="M408.593 360.356L385.213 357.118C383.655 356.916 382.541 355.601 382.764 354.185C382.987 352.768 384.323 351.757 385.881 351.959L409.261 355.196C410.82 355.399 411.933 356.714 411.711 358.13C411.488 359.546 410.041 360.558 408.593 360.356Z" fill="#0D2560"/>
<path d="M407.035 372.091L383.654 368.854C382.096 368.651 380.982 367.336 381.205 365.92C381.428 364.504 382.764 363.492 384.322 363.694L407.703 366.932C409.261 367.134 410.375 368.449 410.152 369.865C410.041 371.383 408.593 372.293 407.035 372.091Z" fill="#0D2560"/>
<path d="M405.587 383.927L382.207 380.69C380.649 380.488 379.535 379.173 379.758 377.756C379.981 376.34 381.317 375.328 382.875 375.531L406.255 378.768C407.814 378.97 408.927 380.285 408.705 381.702C408.593 383.118 407.146 384.13 405.587 383.927Z" fill="#0D2560"/>
<path d="M404.14 395.663L380.76 392.426C379.201 392.223 378.088 390.908 378.311 389.492C378.533 388.075 379.869 387.064 381.428 387.266L404.808 390.503C406.367 390.706 407.48 392.021 407.257 393.437C407.146 394.854 405.699 395.865 404.14 395.663Z" fill="#0D2560"/>
<path d="M374.525 267.181L373.857 273.555L362.056 386.659C361.611 390.503 359.829 393.943 357.046 396.472C353.149 400.114 347.471 402.036 341.459 401.126L208.416 382.005C194.499 379.982 184.479 368.651 185.37 355.803L192.495 254.434L192.718 251.096L193.163 245.531C193.72 237.843 201.291 232.076 209.752 232.987L358.939 249.275C368.513 250.489 375.416 258.38 374.525 267.181Z" fill="#F8FBFF"/>
<path d="M374.525 267.181L373.857 273.554L192.718 251.197L193.163 245.633C193.72 237.944 201.291 232.177 209.752 233.088L358.939 249.376C368.513 250.489 375.416 258.38 374.525 267.181Z" fill="#C5DFFF"/>
<path d="M210.865 244.621C210.531 246.644 208.416 248.162 206.078 247.858C203.74 247.555 201.959 245.734 202.293 243.71C202.627 241.687 204.742 240.17 207.08 240.473C209.418 240.777 211.088 242.598 210.865 244.621Z" fill="white"/>
<path d="M228.456 246.543C228.122 248.566 226.007 250.084 223.669 249.78C221.331 249.477 219.549 247.656 219.883 245.633C220.217 243.609 222.333 242.092 224.671 242.395C227.009 242.699 228.679 244.52 228.456 246.543Z" fill="white"/>
<path d="M245.936 248.465C245.602 250.489 243.486 252.006 241.148 251.703C238.81 251.399 237.029 249.578 237.363 247.555C237.697 245.531 239.812 244.014 242.15 244.317C244.6 244.52 246.27 246.442 245.936 248.465Z" fill="white"/>
<path d="M357.046 396.472C353.149 400.114 347.471 402.036 341.459 401.126L208.416 382.005C194.499 379.982 184.479 368.651 185.37 355.803L192.495 254.434C194.833 289.539 188.933 328.69 210.42 350.947C241.927 383.624 270.54 383.422 357.046 396.472Z" fill="#E1ECFF"/>
<path d="M249.721 292.776L244.154 291.967C242.707 291.765 241.482 292.574 241.371 293.889L239.701 307.749L232.687 307.041C231.462 306.838 230.683 305.726 231.128 304.714L236.138 293.586C236.806 292.169 235.693 290.551 234.023 290.348L229.458 289.64C228.345 289.438 227.231 290.045 226.786 290.955L218.881 308.761C217.991 310.784 219.438 313.111 221.887 313.515L238.699 316.146L235.693 340.83C235.581 342.146 236.583 343.36 238.031 343.562L243.263 344.27C244.599 344.472 245.824 343.663 246.047 342.348L252.059 295.609C252.17 294.294 251.168 292.979 249.721 292.776Z" fill="#99ADF9"/>
<path d="M329.101 304.815L323.423 303.905C321.976 303.702 320.64 304.613 320.528 305.827L318.747 320.192L311.399 319.484C310.174 319.282 309.395 318.068 309.84 317.056L314.962 305.523C315.63 304.107 314.516 302.387 312.735 302.084L308.059 301.375C306.834 301.173 305.721 301.78 305.276 302.691L297.037 321.103C296.146 323.227 297.705 325.655 300.154 326.06L317.522 328.69L314.405 354.286C314.294 355.601 315.296 356.916 316.854 357.118L322.31 357.826C323.757 358.029 324.982 357.118 325.204 355.904L331.439 307.445C331.662 306.231 330.548 305.017 329.101 304.815Z" fill="#99ADF9"/>
<path d="M276.886 296.014C265.864 295.103 259.407 300.768 256.735 317.461C253.395 338.2 259.407 346.597 270.54 348.924C285.681 352.161 288.353 340.325 291.359 322.823C294.365 305.321 287.908 296.924 276.886 296.014ZM282.341 322.418C280.894 334.659 276.775 341.64 271.765 340.527C266.421 339.313 264.417 333.648 265.975 319.181C267.2 307.547 270.317 303.601 275.55 304.006C280.783 304.512 283.789 310.177 282.341 322.418Z" fill="#99ADF9"/>
<path d="M422.176 164.902C416.832 164.8 414.494 153.166 419.504 150.232C424.514 147.299 428.077 153.267 428.188 157.618C428.299 161.968 426.963 165.104 422.176 164.902Z" fill="#FF8D76"/>
<path d="M483.966 131.213C479.067 131.112 476.952 120.591 481.628 117.961C486.193 115.33 489.31 120.692 489.421 124.638C489.533 128.583 488.308 131.315 483.966 131.213Z" fill="#FEC272"/>
<path d="M532.841 109.766C527.831 109.665 525.605 98.8399 530.392 96.1084C535.179 93.3769 538.296 98.9411 538.519 102.988C538.742 107.034 537.294 109.968 532.841 109.766Z" fill="#FF8D76"/>
<path d="M573.478 193.228C569.247 192.217 569.804 182.404 574.48 180.987C579.156 179.571 580.715 184.832 579.935 188.372C579.156 191.913 577.374 194.139 573.478 193.228Z" fill="#FEC272"/>
<path d="M146.849 295.811C141.616 295.103 140.614 283.469 146.069 281.142C151.525 278.815 154.085 284.987 153.751 289.235C153.306 293.586 151.636 296.317 146.849 295.811Z" fill="#FEC272"/>
<path d="M131.819 258.38C127.699 257.874 127.031 248.769 131.151 246.948C135.27 245.127 137.385 249.882 137.051 253.22C136.829 256.66 135.493 258.885 131.819 258.38Z" fill="#FF8D76"/>
<path d="M101.647 318.473C94.9673 317.663 93.7427 302.691 100.645 299.757C107.437 296.823 110.888 304.613 110.443 310.177C109.886 315.64 107.771 319.181 101.647 318.473Z" fill="#FEC272"/>
<path d="M171.676 218.115L118.681 179.773L109.107 195.656L171.676 218.115Z" fill="#FEC272"/>
<path d="M174.237 207.291L122.801 161.664L142.061 150.334L174.237 207.291Z" fill="#FEC272"/>
<path d="M166.666 151.952L184.702 202.94L182.921 150.435L166.666 151.952Z" fill="#FEC272"/>
</svg>
