<svg width="539" height="251" viewBox="0 0 539 251" fill="none" xmlns="http://www.w3.org/2000/svg">
<rect width="539" height="251" fill="#96A7CF"/>
<path d="M66.256 106.824C59.92 106.824 54.544 105.832 50.128 103.848C45.776 101.864 42.48 99.112 40.24 95.592C38.064 92.072 36.976 88.04 36.976 83.496H52.24C52.24 86.184 53.328 88.552 55.504 90.6C57.744 92.584 61.328 93.576 66.256 93.576C70.608 93.576 73.936 92.744 76.24 91.08C78.544 89.352 79.696 87.144 79.696 84.456C79.696 82.216 78.736 80.456 76.816 79.176C74.896 77.832 71.792 76.968 67.504 76.584L62.224 76.104C55.248 75.528 49.68 73.384 45.52 69.672C41.36 65.896 39.28 60.872 39.28 54.6C39.28 50.12 40.336 46.248 42.448 42.984C44.624 39.72 47.632 37.224 51.472 35.496C55.312 33.704 59.856 32.808 65.104 32.808C70.608 32.808 75.312 33.768 79.216 35.688C83.184 37.608 86.224 40.296 88.336 43.752C90.448 47.144 91.504 51.112 91.504 55.656H76.144C76.144 53.096 75.216 50.856 73.36 48.936C71.504 47.016 68.752 46.056 65.104 46.056C61.584 46.056 58.96 46.92 57.232 48.648C55.504 50.312 54.64 52.296 54.64 54.6C54.64 56.584 55.312 58.312 56.656 59.784C58.064 61.256 60.4 62.12 63.664 62.376L69.04 62.856C74.16 63.304 78.672 64.424 82.576 66.216C86.48 67.944 89.52 70.344 91.696 73.416C93.936 76.424 95.056 80.104 95.056 84.456C95.056 88.936 93.872 92.872 91.504 96.264C89.2 99.592 85.904 102.184 81.616 104.04C77.328 105.896 72.208 106.824 66.256 106.824ZM130.671 106.824C124.527 106.824 119.279 105.576 114.927 103.08C110.639 100.584 107.375 97.32 105.135 93.288C102.895 89.192 101.775 84.744 101.775 79.944V77.736C101.775 72.808 102.927 68.296 105.231 64.2C107.599 60.04 110.927 56.744 115.215 54.312C119.567 51.816 124.719 50.568 130.671 50.568C136.623 50.568 141.775 51.816 146.127 54.312C150.479 56.744 153.807 60.04 156.111 64.2C158.479 68.296 159.663 72.808 159.663 77.736V79.944C159.663 84.744 158.511 89.192 156.207 93.288C153.967 97.32 150.703 100.584 146.415 103.08C142.127 105.576 136.879 106.824 130.671 106.824ZM130.671 93.864C135.087 93.864 138.447 92.456 140.751 89.64C143.119 86.76 144.303 83.176 144.303 78.888C144.303 74.472 143.087 70.824 140.655 67.944C138.287 65 134.959 63.528 130.671 63.528C126.383 63.528 123.055 65 120.687 67.944C118.319 70.824 117.135 74.472 117.135 78.888C117.135 83.176 118.287 86.76 120.591 89.64C122.895 92.456 126.255 93.864 130.671 93.864ZM170.383 105V52.392H182.575V70.248C183.151 64.296 184.975 59.72 188.047 56.52C191.183 53.32 195.439 51.72 200.815 51.72H202.831V64.968H198.991C194.703 64.968 191.407 66.12 189.103 68.424C186.863 70.728 185.743 73.992 185.743 78.216V105H170.383ZM225.484 106.344C219.788 106.344 215.18 104.872 211.66 101.928C208.204 98.984 206.476 94.824 206.476 89.448C206.476 85.608 207.468 82.472 209.452 80.04C211.436 77.544 214.22 75.72 217.804 74.568C221.388 73.352 225.516 72.744 230.188 72.744H239.692V72.552C239.692 67.176 237.004 64.488 231.628 64.488C230.22 64.488 228.364 64.552 226.06 64.68C223.756 64.744 221.356 64.84 218.86 64.968C216.428 65.032 214.252 65.128 212.332 65.256V52.296C214.572 52.104 217.324 51.944 220.588 51.816C223.852 51.624 226.86 51.528 229.612 51.528C237.676 51.528 243.82 53.256 248.044 56.712C252.332 60.104 254.476 65.448 254.476 72.744V105H242.284V95.112C241.132 98.76 239.148 101.544 236.332 103.464C233.516 105.384 229.9 106.344 225.484 106.344ZM230.092 95.688C232.588 95.688 234.764 94.984 236.62 93.576C238.476 92.168 239.5 89.48 239.692 85.512V81.288H230.092C227.404 81.288 225.324 81.96 223.852 83.304C222.444 84.648 221.74 86.408 221.74 88.584C221.74 90.696 222.444 92.424 223.852 93.768C225.324 95.048 227.404 95.688 230.092 95.688Z" fill="black"/>
<path d="M383.984 53V37.6H378.704V36.94H389.968V37.6H384.688V53H383.984ZM393.052 53V36.94H393.756V43.914C394.064 43.1073 394.555 42.462 395.23 41.978C395.904 41.494 396.755 41.252 397.782 41.252H397.826C399.263 41.252 400.348 41.6993 401.082 42.594C401.83 43.4887 402.204 44.6693 402.204 46.136V53H401.5V45.96C401.5 44.7573 401.177 43.782 400.532 43.034C399.901 42.286 398.977 41.912 397.76 41.912C396.528 41.912 395.552 42.2933 394.834 43.056C394.115 43.804 393.756 44.7867 393.756 46.004V53H393.052ZM407.351 38.876C406.853 38.876 406.603 38.634 406.603 38.15C406.603 37.9447 406.669 37.776 406.801 37.644C406.933 37.4973 407.117 37.424 407.351 37.424C407.601 37.424 407.784 37.4973 407.901 37.644C408.033 37.776 408.099 37.9447 408.099 38.15C408.099 38.634 407.85 38.876 407.351 38.876ZM407.483 53V42.22H405.503V41.56H408.187V53H407.483ZM412.989 53V41.56H413.561V44.244C413.84 43.3493 414.324 42.6307 415.013 42.088C415.717 41.5307 416.619 41.252 417.719 41.252H417.763C419.201 41.252 420.286 41.6993 421.019 42.594C421.767 43.4887 422.141 44.6693 422.141 46.136V53H421.437V45.96C421.437 44.7573 421.115 43.782 420.469 43.034C419.839 42.286 418.915 41.912 417.697 41.912C416.465 41.912 415.49 42.2933 414.771 43.056C414.053 43.8187 413.693 44.816 413.693 46.048V53H412.989Z" fill="black"/>
<path d="M380.928 92V74.48H390.552V75.656H382.224V82.496H389.976V83.696H382.224V90.824H390.84V92H380.928ZM393.395 92L398.075 85.544L393.731 79.4H395.147L398.795 84.56H399.083L402.563 79.4H403.907L399.779 85.448L404.651 92H403.235L399.083 86.384H398.771L394.739 92H393.395ZM411.953 92.12C410.769 92.12 409.817 91.848 409.097 91.304C408.393 90.744 408.041 89.752 408.041 88.328V80.432H405.641V79.4H408.041V75.296H409.289V79.4H414.041V80.432H409.289V88.544C409.289 89.312 409.497 89.912 409.913 90.344C410.345 90.76 410.937 90.968 411.689 90.968H414.041V92.12H411.953ZM417.761 92V79.4H418.769V82.76C419.025 81.592 419.553 80.728 420.353 80.168C421.169 79.592 422.305 79.304 423.761 79.304H424.193V80.456H423.521C422.033 80.456 420.913 80.84 420.161 81.608C419.409 82.36 419.033 83.472 419.033 84.944V92H417.761ZM430.565 92.336C429.285 92.336 428.221 91.992 427.373 91.304C426.525 90.616 426.101 89.64 426.101 88.376C426.101 87.16 426.517 86.216 427.349 85.544C428.181 84.856 429.357 84.512 430.877 84.512H434.717V83.6C434.717 82.608 434.453 81.832 433.925 81.272C433.397 80.712 432.525 80.432 431.309 80.432C430.637 80.432 429.973 80.456 429.317 80.504C428.677 80.536 428.117 80.584 427.637 80.648V79.496C428.117 79.432 428.637 79.384 429.197 79.352C429.757 79.304 430.293 79.28 430.805 79.28C432.709 79.28 434.045 79.648 434.813 80.384C435.581 81.12 435.965 82.256 435.965 83.792V92H434.957V89.36C434.653 90.352 434.101 91.096 433.301 91.592C432.517 92.088 431.605 92.336 430.565 92.336ZM430.757 91.28C431.381 91.28 431.989 91.16 432.581 90.92C433.173 90.68 433.669 90.28 434.069 89.72C434.469 89.16 434.685 88.392 434.717 87.416V85.544H430.757C429.653 85.544 428.813 85.808 428.237 86.336C427.661 86.848 427.373 87.528 427.373 88.376C427.373 89.288 427.685 90 428.309 90.512C428.933 91.024 429.749 91.28 430.757 91.28ZM441.186 92V74.48H442.482V90.824H450.474V92H441.186ZM454.366 76.76C454.03 76.76 453.774 76.672 453.598 76.496C453.422 76.304 453.334 76.056 453.334 75.752C453.334 75.464 453.422 75.224 453.598 75.032C453.774 74.84 454.03 74.744 454.366 74.744C454.718 74.744 454.982 74.84 455.158 75.032C455.334 75.224 455.422 75.464 455.422 75.752C455.422 76.056 455.334 76.304 455.158 76.496C454.982 76.672 454.718 76.76 454.366 76.76ZM454.246 92V80.504H452.158V79.4H455.542V92H454.246ZM465.311 96.92C464.735 96.92 464.143 96.896 463.535 96.848C462.943 96.8 462.367 96.728 461.807 96.632V95.504C462.383 95.6 462.983 95.672 463.607 95.72C464.247 95.784 464.847 95.816 465.407 95.816C466.687 95.816 467.695 95.648 468.431 95.312C469.167 94.992 469.695 94.464 470.015 93.728C470.335 92.992 470.495 92 470.495 90.752V89.12C470.063 90.096 469.407 90.872 468.527 91.448C467.663 92.008 466.639 92.288 465.455 92.288C464.207 92.288 463.135 91.976 462.239 91.352C461.343 90.728 460.655 89.92 460.175 88.928C459.695 87.92 459.455 86.856 459.455 85.736V85.496C459.455 84.68 459.583 83.888 459.839 83.12C460.111 82.336 460.503 81.64 461.015 81.032C461.543 80.408 462.183 79.92 462.935 79.568C463.687 79.2 464.543 79.016 465.503 79.016C466.783 79.016 467.871 79.336 468.767 79.976C469.663 80.616 470.311 81.44 470.711 82.448V79.4H471.743V90.752C471.743 92.256 471.527 93.456 471.095 94.352C470.679 95.264 469.999 95.92 469.055 96.32C468.127 96.72 466.879 96.92 465.311 96.92ZM465.623 91.112C466.583 91.112 467.431 90.904 468.167 90.488C468.903 90.056 469.479 89.472 469.895 88.736C470.311 87.984 470.519 87.136 470.519 86.192V84.968C470.519 84.056 470.311 83.24 469.895 82.52C469.495 81.784 468.927 81.2 468.191 80.768C467.455 80.336 466.607 80.12 465.647 80.12C464.607 80.12 463.719 80.376 462.983 80.888C462.247 81.4 461.687 82.072 461.303 82.904C460.919 83.736 460.727 84.64 460.727 85.616C460.727 86.624 460.919 87.544 461.303 88.376C461.703 89.208 462.271 89.872 463.007 90.368C463.743 90.864 464.615 91.112 465.623 91.112ZM476.542 92V74.48H477.814V81.872C478.15 81.008 478.67 80.328 479.374 79.832C480.094 79.32 481.006 79.064 482.11 79.064H482.158C483.71 79.064 484.886 79.56 485.686 80.552C486.502 81.544 486.91 82.88 486.91 84.56V92H485.614V84.272C485.614 83.056 485.286 82.08 484.63 81.344C483.974 80.608 483.046 80.24 481.846 80.24C480.614 80.24 479.63 80.632 478.894 81.416C478.174 82.184 477.814 83.192 477.814 84.44V92H476.542ZM495.883 92.12C494.699 92.12 493.747 91.848 493.027 91.304C492.323 90.744 491.971 89.752 491.971 88.328V80.432H489.571V79.4H491.971V75.296H493.219V79.4H497.971V80.432H493.219V88.544C493.219 89.312 493.427 89.912 493.843 90.344C494.275 90.76 494.867 90.968 495.619 90.968H497.971V92.12H495.883Z" fill="black"/>
<path d="M380.544 131V113.384H386.28C387.56 113.384 388.68 113.576 389.64 113.96C390.6 114.344 391.344 114.936 391.872 115.736C392.4 116.536 392.664 117.568 392.664 118.832V119.216C392.664 120.592 392.344 121.696 391.704 122.528C391.08 123.344 390.224 123.928 389.136 124.28L394.224 131H391.368L386.64 124.664C386.528 124.664 386.408 124.664 386.28 124.664H382.896V131H380.544ZM386.712 115.448H382.896V122.576H386.712C387.8 122.576 388.664 122.24 389.304 121.568C389.944 120.896 390.264 120.048 390.264 119.024C390.264 117.984 389.944 117.128 389.304 116.456C388.664 115.784 387.8 115.448 386.712 115.448ZM402.226 131.432C401.106 131.432 400.138 131.24 399.322 130.856C398.506 130.472 397.842 129.968 397.33 129.344C396.818 128.704 396.434 127.992 396.178 127.208C395.938 126.424 395.818 125.624 395.818 124.808V124.376C395.818 123.544 395.938 122.736 396.178 121.952C396.434 121.168 396.818 120.464 397.33 119.84C397.842 119.2 398.49 118.696 399.274 118.328C400.074 117.944 401.01 117.752 402.082 117.752C403.474 117.752 404.618 118.056 405.514 118.664C406.426 119.256 407.098 120.024 407.53 120.968C407.978 121.912 408.202 122.92 408.202 123.992V125.024H398.026C398.106 126.288 398.482 127.336 399.154 128.168C399.826 129 400.85 129.416 402.226 129.416C403.234 129.416 404.05 129.192 404.674 128.744C405.314 128.296 405.698 127.776 405.826 127.184H407.986C407.714 128.512 407.066 129.552 406.042 130.304C405.018 131.056 403.746 131.432 402.226 131.432ZM402.082 119.768C400.93 119.768 400.026 120.096 399.37 120.752C398.714 121.392 398.298 122.24 398.122 123.296H405.946C405.802 122.208 405.41 121.352 404.77 120.728C404.13 120.088 403.234 119.768 402.082 119.768ZM416.322 135.992C415.122 135.992 413.954 135.904 412.818 135.728V133.784C413.394 133.864 413.994 133.928 414.618 133.976C415.258 134.04 415.858 134.072 416.418 134.072C418.178 134.072 419.41 133.712 420.114 132.992C420.834 132.288 421.194 131.152 421.194 129.584V128.432C420.714 129.328 420.066 130 419.25 130.448C418.45 130.88 417.562 131.096 416.586 131.096C415.386 131.096 414.33 130.8 413.418 130.208C412.506 129.6 411.794 128.8 411.282 127.808C410.77 126.816 410.514 125.728 410.514 124.544V124.112C410.514 122.912 410.778 121.832 411.306 120.872C411.834 119.912 412.562 119.152 413.49 118.592C414.418 118.032 415.49 117.752 416.706 117.752C417.826 117.752 418.802 118 419.634 118.496C420.482 118.992 421.13 119.712 421.578 120.656V118.184H423.402V129.488C423.402 131.024 423.162 132.264 422.682 133.208C422.218 134.168 421.466 134.872 420.426 135.32C419.402 135.768 418.034 135.992 416.322 135.992ZM417.018 128.984C417.786 128.984 418.482 128.816 419.106 128.48C419.746 128.144 420.25 127.664 420.618 127.04C421.002 126.4 421.194 125.64 421.194 124.76V123.656C421.194 122.792 420.994 122.064 420.594 121.472C420.21 120.88 419.706 120.432 419.082 120.128C418.458 119.824 417.778 119.672 417.042 119.672C415.778 119.672 414.754 120.096 413.97 120.944C413.202 121.792 412.818 122.92 412.818 124.328C412.818 125.752 413.21 126.888 413.994 127.736C414.794 128.568 415.802 128.984 417.018 128.984ZM432.109 131.384C430.589 131.384 429.421 130.888 428.605 129.896C427.789 128.904 427.381 127.472 427.381 125.6V118.16H429.685V126.056C429.685 127.064 429.957 127.856 430.501 128.432C431.045 128.992 431.781 129.272 432.709 129.272C433.669 129.272 434.453 128.968 435.061 128.36C435.669 127.736 435.973 126.888 435.973 125.816V118.16H438.277V131H436.453V128.048C436.165 129.136 435.669 129.968 434.965 130.544C434.261 131.104 433.341 131.384 432.205 131.384H432.109ZM442.883 131V115.304H441.107V113.48H445.187V131H442.883ZM453.158 131.336C451.702 131.336 450.558 130.976 449.726 130.256C448.91 129.52 448.502 128.488 448.502 127.16C448.502 125.8 448.958 124.776 449.87 124.088C450.782 123.384 452.07 123.032 453.734 123.032H456.974V122.72C456.974 120.944 456.078 120.056 454.286 120.056C453.55 120.056 452.782 120.072 451.982 120.104C451.182 120.136 450.518 120.168 449.99 120.2V118.184C450.502 118.136 451.07 118.104 451.694 118.088C452.334 118.056 452.942 118.04 453.518 118.04C455.486 118.04 456.918 118.4 457.814 119.12C458.726 119.84 459.182 121.096 459.182 122.888V131H457.358V128.456C456.782 130.376 455.382 131.336 453.158 131.336ZM453.638 129.512C454.182 129.512 454.702 129.416 455.198 129.224C455.694 129.016 456.102 128.68 456.422 128.216C456.758 127.736 456.942 127.08 456.974 126.248V124.76H453.638C452.71 124.76 451.998 124.984 451.502 125.432C451.006 125.88 450.758 126.456 450.758 127.16C450.758 127.864 451.006 128.432 451.502 128.864C451.998 129.296 452.71 129.512 453.638 129.512ZM463.411 131V118.184H465.235V122.024C465.427 120.648 465.931 119.64 466.747 119C467.563 118.36 468.675 118.04 470.083 118.04H470.515V120.104H469.699C468.419 120.104 467.435 120.448 466.747 121.136C466.059 121.808 465.715 122.784 465.715 124.064V131H463.411Z" fill="black"/>
<path d="M388.136 170.456C386.584 170.456 385.272 170.208 384.2 169.712C383.128 169.216 382.312 168.536 381.752 167.672C381.208 166.808 380.936 165.816 380.936 164.696H384.272C384.272 165.176 384.4 165.632 384.656 166.064C384.912 166.496 385.32 166.848 385.88 167.12C386.456 167.392 387.208 167.528 388.136 167.528C389.384 167.528 390.32 167.272 390.944 166.76C391.568 166.248 391.88 165.624 391.88 164.888C391.88 164.28 391.616 163.784 391.088 163.4C390.56 163.016 389.744 162.776 388.64 162.68L387.104 162.56C385.424 162.416 384.08 161.896 383.072 161C382.08 160.088 381.584 158.888 381.584 157.4C381.584 156.296 381.84 155.336 382.352 154.52C382.88 153.704 383.624 153.08 384.584 152.648C385.544 152.2 386.664 151.976 387.944 151.976C389.256 151.976 390.392 152.208 391.352 152.672C392.328 153.136 393.08 153.792 393.608 154.64C394.136 155.472 394.4 156.456 394.4 157.592H391.064C391.064 156.888 390.8 156.264 390.272 155.72C389.76 155.176 388.984 154.904 387.944 154.904C386.92 154.904 386.16 155.152 385.664 155.648C385.168 156.144 384.92 156.728 384.92 157.4C384.92 157.944 385.112 158.424 385.496 158.84C385.896 159.24 386.536 159.472 387.416 159.536L388.952 159.68C390.2 159.792 391.288 160.064 392.216 160.496C393.16 160.912 393.896 161.488 394.424 162.224C394.952 162.96 395.216 163.848 395.216 164.888C395.216 165.992 394.92 166.968 394.328 167.816C393.752 168.648 392.936 169.296 391.88 169.76C390.824 170.224 389.576 170.456 388.136 170.456ZM403.9 170.456C402.78 170.456 401.796 170.264 400.948 169.88C400.116 169.496 399.42 168.984 398.86 168.344C398.316 167.688 397.9 166.96 397.612 166.16C397.34 165.36 397.204 164.544 397.204 163.712V163.256C397.204 162.392 397.34 161.56 397.612 160.76C397.9 159.96 398.316 159.24 398.86 158.6C399.42 157.96 400.108 157.456 400.924 157.088C401.74 156.704 402.684 156.512 403.756 156.512C405.164 156.512 406.34 156.824 407.284 157.448C408.228 158.056 408.94 158.864 409.42 159.872C409.916 160.864 410.164 161.936 410.164 163.088V164.288H400.372C400.484 165.312 400.82 166.136 401.38 166.76C401.956 167.384 402.796 167.696 403.9 167.696C404.7 167.696 405.356 167.536 405.868 167.216C406.396 166.88 406.732 166.472 406.876 165.992H409.948C409.66 167.336 408.98 168.416 407.908 169.232C406.836 170.048 405.5 170.456 403.9 170.456ZM403.756 159.272C402.812 159.272 402.06 159.536 401.5 160.064C400.94 160.592 400.58 161.32 400.42 162.248H406.972C406.844 161.32 406.508 160.592 405.964 160.064C405.436 159.536 404.7 159.272 403.756 159.272ZM412.951 170V156.968H415.591V160.16C416.135 157.76 417.551 156.56 419.839 156.56H419.983C422.047 156.56 423.407 157.544 424.063 159.512C424.703 157.544 426.063 156.56 428.143 156.56H428.287C429.775 156.56 430.903 157.072 431.671 158.096C432.455 159.12 432.847 160.608 432.847 162.56V170H429.511V162.248C429.511 161.432 429.303 160.784 428.887 160.304C428.471 159.808 427.879 159.56 427.111 159.56C426.327 159.56 425.703 159.816 425.239 160.328C424.791 160.824 424.567 161.496 424.567 162.344V170H421.231V162.248C421.231 161.432 421.023 160.784 420.607 160.304C420.191 159.808 419.599 159.56 418.831 159.56C418.047 159.56 417.423 159.816 416.959 160.328C416.511 160.824 416.287 161.496 416.287 162.344V170H412.951ZM438.26 155.408C437.604 155.408 437.116 155.24 436.796 154.904C436.492 154.552 436.34 154.112 436.34 153.584C436.34 153.056 436.492 152.624 436.796 152.288C437.116 151.952 437.604 151.784 438.26 151.784C438.9 151.784 439.372 151.952 439.676 152.288C439.996 152.624 440.156 153.056 440.156 153.584C440.156 154.112 439.996 154.552 439.676 154.904C439.372 155.24 438.9 155.408 438.26 155.408ZM437.036 170V159.464H435.212V156.968H440.372V170H437.036ZM444.48 170.12V152.36H450.768C452.752 152.36 454.256 152.776 455.28 153.608C456.32 154.44 456.84 155.632 456.84 157.184V157.52C456.84 158.368 456.68 159.072 456.36 159.632C456.056 160.192 455.632 160.648 455.088 161C455.856 161.32 456.456 161.792 456.888 162.416C457.336 163.04 457.56 163.856 457.56 164.864V165.2C457.56 166.768 457.04 167.984 456 168.848C454.976 169.696 453.472 170.12 451.488 170.12H444.48ZM451.08 155.096H447.816V159.848H451.08C451.896 159.848 452.496 159.632 452.88 159.2C453.264 158.768 453.456 158.192 453.456 157.472C453.456 156.752 453.264 156.176 452.88 155.744C452.496 155.312 451.896 155.096 451.08 155.096ZM451.728 162.488H447.816V167.384H451.728C452.528 167.384 453.136 167.168 453.552 166.736C453.968 166.304 454.176 165.696 454.176 164.912C454.176 164.144 453.968 163.552 453.552 163.136C453.136 162.704 452.528 162.488 451.728 162.488ZM466.91 170.456C465.374 170.456 464.078 170.144 463.022 169.52C461.966 168.88 461.158 168.048 460.598 167.024C460.054 166 459.782 164.912 459.782 163.76V163.256C459.782 162.056 460.062 160.944 460.622 159.92C461.198 158.896 462.014 158.072 463.07 157.448C464.142 156.824 465.422 156.512 466.91 156.512C468.382 156.512 469.646 156.824 470.702 157.448C471.774 158.072 472.59 158.896 473.15 159.92C473.726 160.944 474.014 162.056 474.014 163.256V163.76C474.014 164.912 473.734 166 473.174 167.024C472.63 168.048 471.83 168.88 470.774 169.52C469.718 170.144 468.43 170.456 466.91 170.456ZM466.91 167.6C468.126 167.6 469.054 167.216 469.694 166.448C470.35 165.664 470.678 164.68 470.678 163.496C470.678 162.312 470.342 161.328 469.67 160.544C468.998 159.76 468.078 159.368 466.91 159.368C465.726 159.368 464.798 159.76 464.126 160.544C463.454 161.328 463.118 162.312 463.118 163.496C463.118 164.68 463.438 165.664 464.078 166.448C464.734 167.216 465.678 167.6 466.91 167.6ZM477.103 170V154.976H475.471V152.48H480.439V170H477.103ZM489.648 170.432C488.432 170.432 487.352 170.144 486.408 169.568C485.464 168.976 484.72 168.176 484.176 167.168C483.648 166.16 483.384 165.024 483.384 163.76V163.256C483.384 162.008 483.64 160.88 484.152 159.872C484.664 158.864 485.376 158.064 486.288 157.472C487.216 156.864 488.304 156.56 489.552 156.56C490.48 156.56 491.312 156.752 492.048 157.136C492.8 157.504 493.416 158.064 493.896 158.816V152.48H497.232V170H494.592V167.264C494.144 168.32 493.48 169.112 492.6 169.64C491.736 170.168 490.752 170.432 489.648 170.432ZM490.392 167.624C491.048 167.624 491.648 167.48 492.192 167.192C492.736 166.888 493.168 166.456 493.488 165.896C493.824 165.336 493.992 164.664 493.992 163.88V162.92C493.992 162.168 493.816 161.528 493.464 161C493.128 160.472 492.688 160.072 492.144 159.8C491.6 159.512 491.016 159.368 490.392 159.368C489.304 159.368 488.416 159.752 487.728 160.52C487.056 161.272 486.72 162.272 486.72 163.52C486.72 164.768 487.064 165.768 487.752 166.52C488.44 167.256 489.32 167.624 490.392 167.624Z" fill="black"/>
<path d="M381.776 209.144V191.336H388.64C390.688 191.336 392.272 191.768 393.392 192.632C394.512 193.48 395.072 194.696 395.072 196.28V196.64C395.072 197.408 394.928 198.064 394.64 198.608C394.368 199.152 393.984 199.6 393.488 199.952C394.208 200.304 394.768 200.792 395.168 201.416C395.584 202.04 395.792 202.824 395.792 203.768V204.104C395.792 205.704 395.232 206.944 394.112 207.824C393.008 208.704 391.416 209.144 389.336 209.144H381.776ZM388.832 194.744H386.096V198.512H388.832C389.488 198.512 389.96 198.352 390.248 198.032C390.552 197.696 390.704 197.232 390.704 196.64C390.704 196.032 390.552 195.568 390.248 195.248C389.96 194.912 389.488 194.744 388.832 194.744ZM389.48 201.824H386.096V205.736H389.48C390.776 205.736 391.424 205.08 391.424 203.768C391.424 202.472 390.776 201.824 389.48 201.824ZM404.778 209.48C403.226 209.48 401.898 209.176 400.794 208.568C399.69 207.944 398.85 207.12 398.274 206.096C397.698 205.072 397.41 203.944 397.41 202.712V202.136C397.41 200.84 397.706 199.68 398.298 198.656C398.906 197.616 399.762 196.792 400.866 196.184C401.97 195.576 403.274 195.272 404.778 195.272C406.282 195.272 407.586 195.576 408.69 196.184C409.794 196.792 410.642 197.616 411.234 198.656C411.842 199.68 412.146 200.84 412.146 202.136V202.712C412.146 203.944 411.858 205.072 411.282 206.096C410.706 207.12 409.866 207.944 408.762 208.568C407.674 209.176 406.346 209.48 404.778 209.48ZM404.778 205.832C405.77 205.832 406.514 205.512 407.01 204.872C407.522 204.232 407.778 203.416 407.778 202.424C407.778 201.4 407.514 200.56 406.986 199.904C406.474 199.248 405.738 198.92 404.778 198.92C403.818 198.92 403.074 199.248 402.546 199.904C402.034 200.56 401.778 201.4 401.778 202.424C401.778 203.416 402.026 204.232 402.522 204.872C403.034 205.512 403.786 205.832 404.778 205.832ZM414.729 209V194.648H413.241V191.48H419.097V209H414.729ZM427.766 209.432C426.534 209.432 425.446 209.144 424.502 208.568C423.574 207.992 422.846 207.2 422.318 206.192C421.806 205.168 421.55 204.016 421.55 202.736V202.16C421.55 200.864 421.798 199.704 422.294 198.68C422.79 197.656 423.486 196.848 424.382 196.256C425.294 195.664 426.374 195.368 427.622 195.368C429.494 195.368 430.878 196.072 431.774 197.48V191.48H436.142V209H432.686V206.192C432.286 207.216 431.662 208.016 430.814 208.592C429.982 209.152 428.966 209.432 427.766 209.432ZM428.942 205.832C429.742 205.832 430.43 205.568 431.006 205.04C431.582 204.496 431.87 203.728 431.87 202.736V201.92C431.87 201.28 431.726 200.744 431.438 200.312C431.166 199.88 430.806 199.552 430.358 199.328C429.926 199.088 429.454 198.968 428.942 198.968C428.062 198.968 427.334 199.288 426.758 199.928C426.198 200.568 425.918 201.408 425.918 202.448C425.918 203.472 426.198 204.296 426.758 204.92C427.334 205.528 428.062 205.832 428.942 205.832Z" fill="black"/>
<path d="M42.806 141.288C41.546 141.288 40.568 141.018 39.872 140.478C39.188 139.938 38.834 139.2 38.81 138.264H40.43C40.454 138.636 40.64 138.99 40.988 139.326C41.348 139.65 41.954 139.812 42.806 139.812C43.574 139.812 44.162 139.662 44.57 139.362C44.978 139.05 45.182 138.672 45.182 138.228C45.182 137.832 45.032 137.526 44.732 137.31C44.432 137.082 43.946 136.932 43.274 136.86L42.23 136.752C41.318 136.656 40.574 136.386 39.998 135.942C39.422 135.486 39.134 134.85 39.134 134.034C39.134 133.11 39.476 132.39 40.16 131.874C40.844 131.358 41.726 131.1 42.806 131.1C43.886 131.1 44.762 131.34 45.434 131.82C46.106 132.3 46.454 133.014 46.478 133.962H44.858C44.846 133.578 44.666 133.254 44.318 132.99C43.982 132.714 43.478 132.576 42.806 132.576C42.134 132.576 41.624 132.714 41.276 132.99C40.928 133.266 40.754 133.614 40.754 134.034C40.754 134.394 40.874 134.682 41.114 134.898C41.366 135.114 41.774 135.252 42.338 135.312L43.382 135.42C44.414 135.528 45.242 135.816 45.866 136.284C46.49 136.74 46.802 137.388 46.802 138.228C46.802 138.828 46.628 139.362 46.28 139.83C45.944 140.286 45.476 140.646 44.876 140.91C44.276 141.162 43.586 141.288 42.806 141.288ZM51.9704 141.252C50.8784 141.252 50.0204 140.982 49.3964 140.442C48.7844 139.89 48.4784 139.116 48.4784 138.12C48.4784 137.1 48.8204 136.332 49.5044 135.816C50.1884 135.288 51.1544 135.024 52.4024 135.024H54.8324V134.79C54.8324 133.458 54.1604 132.792 52.8164 132.792C52.2644 132.792 51.6884 132.804 51.0884 132.828C50.4884 132.852 49.9904 132.876 49.5944 132.9V131.388C49.9784 131.352 50.4044 131.328 50.8724 131.316C51.3524 131.292 51.8084 131.28 52.2404 131.28C53.7164 131.28 54.7904 131.55 55.4624 132.09C56.1464 132.63 56.4884 133.572 56.4884 134.916V141H55.1204V139.092C54.6884 140.532 53.6384 141.252 51.9704 141.252ZM52.3304 139.884C52.7384 139.884 53.1284 139.812 53.5004 139.668C53.8724 139.512 54.1784 139.26 54.4184 138.912C54.6704 138.552 54.8084 138.06 54.8324 137.436V136.32H52.3304C51.6344 136.32 51.1004 136.488 50.7284 136.824C50.3564 137.16 50.1704 137.592 50.1704 138.12C50.1704 138.648 50.3564 139.074 50.7284 139.398C51.1004 139.722 51.6344 139.884 52.3304 139.884ZM59.6599 141V131.388H61.0279V133.62C61.2439 132.804 61.6279 132.18 62.1799 131.748C62.7439 131.316 63.4759 131.1 64.3759 131.1H64.4479C65.6599 131.1 66.5539 131.478 67.1299 132.234C67.7179 132.99 68.0119 134.082 68.0119 135.51V141H66.2839V135.15C66.2839 134.406 66.0739 133.812 65.6539 133.368C65.2339 132.912 64.6579 132.684 63.9259 132.684C63.1699 132.684 62.5579 132.918 62.0899 133.386C61.6219 133.854 61.3879 134.478 61.3879 135.258V141H59.6599ZM74.3236 141.288C73.0636 141.288 72.0856 141.018 71.3896 140.478C70.7056 139.938 70.3516 139.2 70.3276 138.264H71.9476C71.9716 138.636 72.1576 138.99 72.5056 139.326C72.8656 139.65 73.4716 139.812 74.3236 139.812C75.0916 139.812 75.6796 139.662 76.0876 139.362C76.4956 139.05 76.6996 138.672 76.6996 138.228C76.6996 137.832 76.5496 137.526 76.2496 137.31C75.9496 137.082 75.4636 136.932 74.7916 136.86L73.7476 136.752C72.8356 136.656 72.0916 136.386 71.5156 135.942C70.9396 135.486 70.6516 134.85 70.6516 134.034C70.6516 133.11 70.9936 132.39 71.6776 131.874C72.3616 131.358 73.2436 131.1 74.3236 131.1C75.4036 131.1 76.2796 131.34 76.9516 131.82C77.6236 132.3 77.9716 133.014 77.9956 133.962H76.3756C76.3636 133.578 76.1836 133.254 75.8356 132.99C75.4996 132.714 74.9956 132.576 74.3236 132.576C73.6516 132.576 73.1416 132.714 72.7936 132.99C72.4456 133.266 72.2716 133.614 72.2716 134.034C72.2716 134.394 72.3916 134.682 72.6316 134.898C72.8836 135.114 73.2916 135.252 73.8556 135.312L74.8996 135.42C75.9316 135.528 76.7596 135.816 77.3836 136.284C78.0076 136.74 78.3196 137.388 78.3196 138.228C78.3196 138.828 78.1456 139.362 77.7976 139.83C77.4616 140.286 76.9936 140.646 76.3936 140.91C75.7936 141.162 75.1036 141.288 74.3236 141.288ZM80.356 136.734V135.258H87.052V136.734H80.356ZM93.0443 141.288C91.7843 141.288 90.8063 141.018 90.1103 140.478C89.4263 139.938 89.0723 139.2 89.0483 138.264H90.6683C90.6923 138.636 90.8783 138.99 91.2263 139.326C91.5863 139.65 92.1923 139.812 93.0443 139.812C93.8123 139.812 94.4003 139.662 94.8083 139.362C95.2163 139.05 95.4203 138.672 95.4203 138.228C95.4203 137.832 95.2703 137.526 94.9703 137.31C94.6703 137.082 94.1843 136.932 93.5123 136.86L92.4683 136.752C91.5563 136.656 90.8123 136.386 90.2363 135.942C89.6603 135.486 89.3723 134.85 89.3723 134.034C89.3723 133.11 89.7143 132.39 90.3983 131.874C91.0823 131.358 91.9643 131.1 93.0443 131.1C94.1243 131.1 95.0003 131.34 95.6723 131.82C96.3443 132.3 96.6923 133.014 96.7163 133.962H95.0963C95.0843 133.578 94.9043 133.254 94.5563 132.99C94.2203 132.714 93.7163 132.576 93.0443 132.576C92.3723 132.576 91.8623 132.714 91.5143 132.99C91.1663 133.266 90.9923 133.614 90.9923 134.034C90.9923 134.394 91.1123 134.682 91.3523 134.898C91.6043 135.114 92.0123 135.252 92.5763 135.312L93.6203 135.42C94.6523 135.528 95.4803 135.816 96.1043 136.284C96.7283 136.74 97.0403 137.388 97.0403 138.228C97.0403 138.828 96.8663 139.362 96.5183 139.83C96.1823 140.286 95.7143 140.646 95.1143 140.91C94.5143 141.162 93.8243 141.288 93.0443 141.288ZM103.631 141.324C102.791 141.324 102.065 141.18 101.453 140.892C100.841 140.604 100.343 140.226 99.9587 139.758C99.5747 139.278 99.2867 138.744 99.0947 138.156C98.9147 137.568 98.8247 136.968 98.8247 136.356V136.032C98.8247 135.408 98.9147 134.802 99.0947 134.214C99.2867 133.626 99.5747 133.098 99.9587 132.63C100.343 132.15 100.829 131.772 101.417 131.496C102.017 131.208 102.719 131.064 103.523 131.064C104.567 131.064 105.425 131.292 106.097 131.748C106.781 132.192 107.285 132.768 107.609 133.476C107.945 134.184 108.113 134.94 108.113 135.744V136.518H100.481C100.541 137.466 100.823 138.252 101.327 138.876C101.831 139.5 102.599 139.812 103.631 139.812C104.387 139.812 104.999 139.644 105.467 139.308C105.947 138.972 106.235 138.582 106.331 138.138H107.951C107.747 139.134 107.261 139.914 106.493 140.478C105.725 141.042 104.771 141.324 103.631 141.324ZM103.523 132.576C102.659 132.576 101.981 132.822 101.489 133.314C100.997 133.794 100.685 134.43 100.553 135.222H106.421C106.313 134.406 106.019 133.764 105.539 133.296C105.059 132.816 104.387 132.576 103.523 132.576ZM110.566 141V131.388H111.934V134.268C112.078 133.236 112.456 132.48 113.068 132C113.68 131.52 114.514 131.28 115.57 131.28H115.894V132.828H115.282C114.322 132.828 113.584 133.086 113.068 133.602C112.552 134.106 112.294 134.838 112.294 135.798V141H110.566ZM118.903 129.84C118.519 129.84 118.231 129.738 118.039 129.534C117.859 129.33 117.769 129.072 117.769 128.76C117.769 128.448 117.859 128.19 118.039 127.986C118.231 127.782 118.519 127.68 118.903 127.68C119.287 127.68 119.569 127.782 119.749 127.986C119.941 128.19 120.037 128.448 120.037 128.76C120.037 129.072 119.941 129.33 119.749 129.534C119.569 129.738 119.287 129.84 118.903 129.84ZM118.417 141V132.756H116.941V131.388H120.145V141H118.417ZM123.738 141V132.792H122.406V131.496H123.738V130.902C123.738 129.834 124.02 129.048 124.584 128.544C125.148 128.04 125.976 127.788 127.068 127.788H128.256V129.228H126.78C126.336 129.228 125.994 129.354 125.754 129.606C125.514 129.846 125.394 130.182 125.394 130.614V131.496H128.436V132.792H125.394V141H123.738Z" fill="black"/>
</svg>
