<svg width="35" height="54" viewBox="0 0 35 54" fill="none" xmlns="http://www.w3.org/2000/svg">
<path d="M19.5732 13.5063C21.3732 13.5063 22.8973 13.7613 24.1454 14.2711C25.3935 14.781 26.6068 15.5008 27.7851 16.4305C28.0788 16.7005 28.3607 16.8354 28.6307 16.8354C29.2307 16.8354 29.6416 15.9357 29.8635 14.1362H30.8985C30.7289 16.2656 30.5816 20.0146 30.4566 25.3831H29.4216C29.2675 22.9838 28.9215 21.0943 28.3836 19.7146C27.8457 18.335 26.8826 17.1803 25.4943 16.2506C24.1052 15.3508 22.7207 14.901 21.3407 14.901C18.2207 14.901 15.9958 16.4005 14.6659 19.3997C13.3361 22.3989 12.6226 25.9829 12.5255 30.1518C12.4284 34.3207 12.9749 37.9047 14.165 40.9039C15.3552 43.9031 17.5103 45.4027 20.6303 45.4027C22.0103 45.4027 23.4157 44.9528 24.8467 44.053C26.2769 43.1833 27.2942 42.0136 27.8984 40.544C28.5027 39.0744 28.9412 36.99 29.2141 34.2907H30.2491C30.1184 39.8992 30.0876 43.7981 30.1566 45.9875H29.1216C29.054 45.0278 28.9347 44.353 28.7638 43.9631C28.6236 43.5432 28.4035 43.3332 28.1035 43.3332C27.8635 43.3332 27.5457 43.4532 27.1501 43.6931C25.7777 44.6529 24.4706 45.3877 23.2287 45.8975C21.9875 46.3774 20.497 46.6174 18.757 46.6174C15.367 46.6174 12.412 45.9725 9.89202 44.6829C7.37206 43.3932 5.43537 41.5337 4.08196 39.1044C2.72924 36.6451 2.09235 33.7208 2.1713 30.3318C2.24814 27.0327 3.03626 24.1085 4.53564 21.5591C6.03502 19.0098 8.09113 17.0304 10.704 15.6208C13.3168 14.2111 16.2732 13.5063 19.5732 13.5063Z" fill="black"/>
<path d="M20.016 13.5076C21.726 13.5076 23.1023 13.6726 24.1449 14.0025C25.2182 14.3024 26.2585 14.7373 27.2658 15.3072C27.5918 15.4871 27.8735 15.6371 28.1108 15.7571C28.3781 15.877 28.6018 15.937 28.7818 15.937C29.0518 15.937 29.2651 15.787 29.4218 15.4871C29.5792 15.1572 29.7105 14.6473 29.8159 13.9575L30.8509 13.9575C30.6528 16.117 30.4962 19.7761 30.3812 24.9348L29.3462 24.9348C29.2643 23.2252 28.9108 21.5906 28.2855 20.031C27.6603 18.4714 26.7887 17.1967 25.6708 16.2069C24.5528 15.2172 23.2439 14.7223 21.7439 14.7223C20.3639 14.7223 19.2455 15.0972 18.3888 15.847C17.5328 16.5669 17.09 17.5866 17.0606 18.9063C17.0379 19.926 17.2431 20.8108 17.6764 21.5606C18.1097 22.3104 18.7533 23.0452 19.6073 23.7651C20.4619 24.4549 21.8638 25.4896 23.8131 26.8693C23.9911 26.9593 24.1537 27.0642 24.3011 27.1842C24.4784 27.3042 24.6407 27.4242 24.788 27.5441C26.4126 28.6838 27.7099 29.7036 28.6798 30.6034C29.6504 31.4731 30.4227 32.4929 30.9966 33.6626C31.6006 34.8323 31.8855 36.182 31.8514 37.7116C31.8079 39.6611 31.2161 41.3107 30.0761 42.6604C28.9666 43.98 27.4746 44.9698 25.5999 45.6296C23.7252 46.2895 21.6628 46.6194 19.4128 46.6194C17.5828 46.6194 16.0561 46.4694 14.8328 46.1695C13.6395 45.8696 12.5235 45.4647 11.4849 44.9548C10.8343 44.5349 10.3289 44.325 9.96895 44.325C9.69895 44.325 9.48527 44.4899 9.32791 44.8198C9.17123 45.1198 9.04019 45.6146 8.93482 46.3045L7.89982 46.3045C8.06528 44.265 8.22223 39.9161 8.37067 33.2577L9.40567 33.2577C9.5361 36.8268 10.2216 39.7211 11.4621 41.9406C12.7026 44.16 14.6579 45.2697 17.3279 45.2697C18.9779 45.2697 20.2916 44.8798 21.269 44.1C22.2763 43.3202 22.7954 42.2405 22.8262 40.8608C22.8643 39.1512 22.3567 37.6966 21.3035 36.4969C20.2809 35.2672 18.6613 33.9025 16.4447 32.4029C14.6715 31.2032 13.2549 30.1535 12.1949 29.2537C11.135 28.3539 10.2731 27.3192 9.60913 26.1495C8.94587 24.9498 8.63163 23.5701 8.6664 22.0105C8.70852 20.121 9.25362 18.5464 10.3017 17.2867C11.3505 15.997 12.7215 15.0522 14.4149 14.4524C16.1389 13.8225 18.006 13.5076 20.016 13.5076Z" fill="black"/>
</svg>
